<svg viewBox="-0.5 0 25 25" fill="none" xmlns="http://www.w3.org/2000/svg">
<g id="SVGRepo_bgCarrier" stroke-width="0"></g>
<g id="SVGRepo_tracerCarrier" stroke-linecap="round" stroke-linejoin="round"></g>
<g id="SVGRepo_iconCarrier"> 
    <path d="M10.5 14.9387H13.5C13.78 14.9387 14 15.1587 14 15.4387V20.4387C14 20.7187 13.78 20.9387 13.5 20.9387H10.5C10.22 20.9387 10 20.7187 10 20.4387V15.4387C10 15.1587 10.22 14.9387 10.5 14.9387Z" stroke="#fff" stroke-miterlimit="10" stroke-linecap="round" stroke-linejoin="round"></path> <path d="M8 20.9387H6C5.72 20.9387 5.5 20.7187 5.5 20.4387V10.9387H2.5L11.7 4.15875C11.88 4.02875 12.12 4.02875 12.29 4.15875L21.5 10.9387H18.5V20.4387C18.5 20.7187 18.27 20.9387 18 20.9387H16" stroke="#fff" stroke-miterlimit="10" stroke-linecap="round" stroke-linejoin="round"></path> </g></svg>