<?xml version="1.0" encoding="iso-8859-1"?>
<!-- Uploaded to: SVG Repo, www.svgrepo.com, Generator: SVG Repo Mixer Tools -->
<!DOCTYPE svg PUBLIC "-//W3C//DTD SVG 1.1//EN" "http://www.w3.org/Graphics/SVG/1.1/DTD/svg11.dtd">
<svg fill="#fff" height="800px" width="800px" version="1.1" id="Capa_1" xmlns="http://www.w3.org/2000/svg" xmlns:xlink="http://www.w3.org/1999/xlink" 
	 viewBox="0 0 295.402 295.402" xml:space="preserve">
<path d="M252.065,223.24c-1.604-5.124-3.409-10.666-5.374-16.507c-13.465-40.099-16.301-83.132-8.235-124.628
	c14.749-10.941,23.473-28.162,23.473-46.603L261.896,0h-13v13.503h-12.717V0h-13v13.503h-12.716V0h-13v13.503h-12.717V0h-13v13.503
	h-12.717V0h-13l-0.1,35.503c0,18.44,8.724,35.661,23.473,46.603c8.067,41.503,5.228,84.535-8.247,124.633
	c-1.991,5.947-3.792,11.486-5.362,16.501c-3.285,2.408-6.386,5.061-9.276,7.931c-3.985-3.894-8.39-7.402-13.182-10.431
	c-4.897-19.104-7.811-38.691-8.681-58.331c-0.073-1.645-0.213-6.344-0.213-6.344c11-9.738,17.245-23.53,17.245-38.336v-6.5h-9.278
	c3.441-6.66,5.28-14.101,5.28-21.695c0-26.061-21.202-47.263-47.263-47.263c-26.062,0-47.264,21.202-47.264,47.263
	c0,7.594,1.839,15.036,5.28,21.695h-9.278v6.5c0,14.877,6.292,28.712,17.377,38.455c-0.478,21.693-3.449,43.354-8.836,64.435
	C24.361,235.28,9.972,261.152,9.972,288.801v6.601H285.43v-6.399C285.43,263.009,272.999,238.595,252.065,223.24z M158.93,35.503v-9
	h90v9c0,14.383-6.859,27.799-18.419,36.286h-53.161C165.789,63.302,158.93,49.886,158.93,35.503z M183.109,84.789h41.642
	c-7.293,42.096-4.005,85.517,9.619,126.086c1.148,3.414,2.237,6.714,3.264,9.892h-67.409c1.015-3.143,2.103-6.447,3.257-9.894
	C187.11,170.313,190.402,126.892,183.109,84.789z M69.448,159.673h42.1c0.652,19.71,3.269,39.388,7.806,58.64H61.654
	C66.185,199.063,68.8,179.392,69.448,159.673z M56.163,89.533c0-18.893,15.371-34.263,34.264-34.263
	c18.893,0,34.263,15.37,34.263,34.263c0,7.916-2.756,15.6-7.76,21.695H63.923C58.919,105.133,56.163,97.449,56.163,89.533z
	 M52.712,124.229h75.428c-1.481,8.696-5.922,16.587-12.713,22.444h-50C58.634,140.815,54.192,132.929,52.712,124.229z
	 M55.134,231.313h70.579c18.022,11.092,29.807,30.117,31.85,50.988H23.289C25.33,261.42,37.109,242.408,55.134,231.313z
	 M170.621,282.503c-1.201-15.127-6.687-29.497-15.54-41.499c2.586-2.632,5.376-5.055,8.348-7.238h80.962
	c15.825,11.621,25.881,29.379,27.729,48.736H170.621z"/>
</svg>